<svg xmlns="http://www.w3.org/2000/svg" width="1200" height="700" viewBox="0 0 1200 700" role="img" aria-label="Safe Space Agent cover">
  <defs>
    <linearGradient id="bg" x1="0" x2="1" y1="0" y2="1">
      <stop offset="0%" stop-color="#0b1020" />
      <stop offset="100%" stop-color="#1f2937" />
    </linearGradient>
    <linearGradient id="accent" x1="0" x2="1" y1="0" y2="1">
      <stop offset="0%" stop-color="#f472b6" />
      <stop offset="100%" stop-color="#fb7185" />
    </linearGradient>
  </defs>
  <rect width="1200" height="700" fill="url(#bg)" />
  <circle cx="210" cy="560" r="180" fill="#f472b6" opacity="0.12" />
  <circle cx="980" cy="120" r="140" fill="#fb7185" opacity="0.12" />
  <rect x="80" y="120" width="1040" height="460" rx="28" fill="#0f172a" opacity="0.6" stroke="#334155" />
  <text x="140" y="220" fill="#f8fafc" font-size="48" font-family="Inter, Arial, sans-serif" font-weight="700">Safe Space Agentic AI</text>
  <text x="140" y="280" fill="#94a3b8" font-size="22" font-family="Inter, Arial, sans-serif">Crisis detection • Tool-augmented workflows • 24/7 support</text>
  <g fill="url(#accent)">
    <rect x="140" y="340" width="120" height="12" rx="6" />
    <rect x="140" y="370" width="260" height="12" rx="6" opacity="0.7" />
    <rect x="140" y="400" width="360" height="12" rx="6" opacity="0.5" />
  </g>
  <g>
    <rect x="720" y="310" width="320" height="220" rx="20" fill="#111827" stroke="#1f2937" />
    <circle cx="770" cy="360" r="26" fill="#fb7185" opacity="0.85" />
    <rect x="810" y="350" width="190" height="16" rx="8" fill="#334155" />
    <rect x="770" y="390" width="230" height="12" rx="6" fill="#1f2937" />
    <rect x="770" y="420" width="210" height="12" rx="6" fill="#1f2937" />
  </g>
  <text x="140" y="520" fill="#fda4af" font-size="16" font-family="Inter, Arial, sans-serif">LangGraph • Twilio • Google Maps • FastAPI</text>
</svg>
